<svg width="20" height="19" viewBox="0 0 20 19" fill="none" xmlns="http://www.w3.org/2000/svg">
<g clip-path="url(#clip0_1_110)">
<path fill-rule="evenodd" clip-rule="evenodd" d="M0.313965 9.23377C0.313965 13.312 2.98549 16.7747 6.66368 18.0058C7.12829 18.0828 7.28316 17.8135 7.28316 17.5442C7.28316 17.3133 7.28316 16.7362 7.28316 15.9667C4.68907 16.5438 4.14702 14.7356 4.14702 14.7356C3.72113 13.6583 3.10164 13.389 3.10164 13.389C2.24985 12.8119 3.17908 12.8119 3.17908 12.8119C4.10831 12.8888 4.61164 13.7737 4.61164 13.7737C5.42471 15.1972 6.77983 14.774 7.32188 14.5432C7.39931 13.9276 7.63162 13.5429 7.90265 13.312C5.8506 13.0812 3.68241 12.2732 3.68241 8.7336C3.68241 7.73328 4.03087 6.88685 4.65035 6.27127C4.57292 6.04042 4.22446 5.11704 4.72779 3.80893C4.72779 3.80893 5.50214 3.57808 7.28316 4.77078C8.0188 4.57841 8.83187 4.46299 9.60623 4.46299C10.3806 4.46299 11.1937 4.57841 11.9293 4.77078C13.7103 3.57808 14.4847 3.80893 14.4847 3.80893C14.988 5.07857 14.6783 6.00195 14.5621 6.27127C15.1429 6.92532 15.53 7.73328 15.53 8.7336C15.53 12.2732 13.3618 13.0427 11.2711 13.2735C11.6196 13.5429 11.8906 14.12 11.8906 14.9664C11.8906 16.1976 11.8906 17.1979 11.8906 17.5057C11.8906 17.7365 12.0454 18.0443 12.5488 17.9674C16.227 16.7747 18.8985 13.312 18.8985 9.23377C18.8985 4.11672 14.7557 0 9.60623 0C4.45677 0 0.313965 4.11672 0.313965 9.23377Z" fill="#DC710E"/>
</g>
<defs>
<clipPath id="clip0_1_110">
<rect width="18.9143" height="18.0192" fill="white" transform="translate(0.313965)"/>
</clipPath>
</defs>
</svg>
