<svg width="21" height="20" viewBox="0 0 21 20" fill="none" xmlns="http://www.w3.org/2000/svg">
<g clip-path="url(#clip0_1_100)">
<path fill-rule="evenodd" clip-rule="evenodd" d="M14.1793 1.79548C14.7954 1.80297 15.4056 1.91538 15.9834 2.12783C16.4025 2.28841 16.783 2.5344 17.1006 2.84997C17.4181 3.16554 17.6657 3.54369 17.8273 3.96008C18.0411 4.53427 18.1542 5.14063 18.1617 5.75281C18.208 6.77098 18.2182 7.07621 18.2182 9.65359C18.2182 12.231 18.2085 12.5362 18.1617 13.5544C18.1542 14.1666 18.0411 14.7729 17.8273 15.3471C17.6657 15.7635 17.4181 16.1416 17.1006 16.4572C16.783 16.7728 16.4025 17.0188 15.9834 17.1794C15.4056 17.3918 14.7954 17.5042 14.1793 17.5117C13.1552 17.5577 12.848 17.5678 10.2538 17.5678C7.65966 17.5678 7.35251 17.5581 6.32834 17.5117C5.71229 17.5042 5.10208 17.3918 4.52426 17.1794C4.10523 17.0188 3.72469 16.7728 3.40712 16.4572C3.08955 16.1416 2.842 15.7635 2.6804 15.3471C2.46661 14.7729 2.35349 14.1666 2.34595 13.5544C2.29969 12.5362 2.28951 12.231 2.28951 9.65359C2.28951 7.07621 2.29923 6.77098 2.34595 5.75281C2.35349 5.14063 2.46661 4.53427 2.6804 3.96008C2.842 3.54369 3.08955 3.16554 3.40712 2.84997C3.72469 2.5344 4.10523 2.28841 4.52426 2.12783C5.10208 1.91538 5.71229 1.80297 6.32834 1.79548C7.35297 1.74952 7.66013 1.7394 10.2538 1.7394C12.8476 1.7394 13.1547 1.74906 14.1793 1.79548ZM6.24878 0.0579188C5.44251 0.0738547 4.64481 0.225553 3.88959 0.50656C3.24174 0.749114 2.65495 1.12922 2.17016 1.62035C1.67548 2.10226 1.29264 2.68568 1.04839 3.32987C0.765607 4.08033 0.612948 4.87302 0.596911 5.6742C0.550653 6.70295 0.539551 7.033 0.539551 9.65313C0.539551 12.2733 0.550653 12.6033 0.597836 13.633C0.613873 14.4342 0.766532 15.2269 1.04932 15.9773C1.29329 16.6214 1.67581 17.2048 2.17016 17.6868C2.65522 18.1781 3.24234 18.5582 3.89052 18.8006C4.64573 19.0816 5.44344 19.2333 6.2497 19.2493C7.28589 19.2952 7.61664 19.3072 10.2548 19.3072C12.8929 19.3072 13.2236 19.2962 14.2598 19.2493C15.0661 19.2333 15.8638 19.0816 16.619 18.8006C17.2641 18.5521 17.8499 18.1726 18.339 17.6863C18.8281 17.2 19.2097 16.6176 19.4593 15.9764C19.7421 15.2259 19.8947 14.4333 19.9108 13.6321C19.957 12.6033 19.9681 12.2733 19.9681 9.65313C19.9681 7.033 19.957 6.70295 19.9098 5.67329C19.8938 4.8721 19.7411 4.07941 19.4584 3.32895C19.2144 2.68485 18.8319 2.10143 18.3375 1.61943C17.8525 1.12819 17.2653 0.748076 16.6172 0.50564C15.8619 0.224633 15.0642 0.0729354 14.258 0.0569995C13.2227 0.0110322 12.8906 0 10.2538 0C7.61711 0 7.28497 0.0110321 6.24878 0.0579188Z" fill="#DC710E"/>
<path fill-rule="evenodd" clip-rule="evenodd" d="M7.48023 5.53171C6.65987 6.07641 6.02048 6.8506 5.64291 7.7564C5.26535 8.66219 5.16656 9.6589 5.35904 10.6205C5.55152 11.5821 6.02663 12.4653 6.72429 13.1586C7.42195 13.8519 8.31082 14.324 9.27849 14.5153C10.2462 14.7065 11.2492 14.6084 12.1607 14.2332C13.0723 13.858 13.8514 13.2226 14.3995 12.4074C14.9477 11.5922 15.2402 10.6338 15.2402 9.6534C15.2402 8.3387 14.7146 7.07783 13.7791 6.14819C12.8436 5.21856 11.5747 4.69629 10.2517 4.69629C9.26507 4.69629 8.30059 4.98702 7.48023 5.53171ZM8.45271 12.3288C7.92021 11.9753 7.50518 11.4727 7.26009 10.8848C7.01501 10.2968 6.95088 9.64983 7.07583 9.02566C7.20077 8.40148 7.50917 7.82814 7.96203 7.37814C8.41488 6.92813 8.99185 6.62168 9.61998 6.49752C10.2481 6.37336 10.8992 6.43708 11.4909 6.68063C12.0826 6.92417 12.5883 7.33659 12.9441 7.86574C13.2999 8.39489 13.4898 9.017 13.4898 9.6534C13.4898 10.5068 13.1486 11.3252 12.5414 11.9287C11.9341 12.5321 11.1105 12.8711 10.2517 12.8711C9.61127 12.8711 8.98522 12.6824 8.45271 12.3288Z" fill="#DC710E"/>
<path fill-rule="evenodd" clip-rule="evenodd" d="M15.4387 5.65855C14.7949 5.65855 14.2729 5.13993 14.2729 4.50017C14.2729 3.86042 14.7949 3.3418 15.4387 3.3418C16.0825 3.3418 16.6044 3.86042 16.6044 4.50017C16.6044 5.13993 16.0825 5.65855 15.4387 5.65855Z" fill="#DC710E"/>
</g>
<defs>
<clipPath id="clip0_1_100">
<rect width="19.7733" height="19.3072" fill="white" transform="translate(0.539551)"/>
</clipPath>
</defs>
</svg>
