<svg width="257" height="400" viewBox="0 0 257 400" fill="none" xmlns="http://www.w3.org/2000/svg">
<path opacity="0.15" d="M30.9091 331.045H124V348.045L65.4091 388.545V389.227H124V408.909H30.9091V391.636L89.4545 351.455V350.636H30.9091V331.045ZM125.364 283.33C125.364 290.511 123.909 296.693 121 301.875C118.061 307.027 113.909 310.996 108.545 313.784C103.152 316.572 96.7727 317.966 89.4091 317.966C82.2273 317.966 75.9242 316.572 70.5 313.784C65.0758 310.996 60.8485 307.072 57.8182 302.011C54.7879 296.92 53.2727 290.951 53.2727 284.102C53.2727 279.496 54.0152 275.208 55.5 271.239C56.9545 267.239 59.1515 263.754 62.0909 260.784C65.0303 257.784 68.7273 255.451 73.1818 253.784C77.6061 252.117 82.7879 251.284 88.7273 251.284H94.0455L94.0455 310.239H82.0455L82.0455 269.511C79.2576 269.511 76.7879 270.117 74.6364 271.33C72.4848 272.542 70.803 274.223 69.5909 276.375C68.3485 278.496 67.7273 280.966 67.7273 283.784C67.7273 286.723 68.4091 289.33 69.7727 291.602C71.1061 293.845 72.9091 295.602 75.1818 296.875C77.4242 298.148 79.9242 298.799 82.6818 298.83H94.0909C97.5455 298.83 100.53 298.193 103.045 296.92C105.561 295.617 107.5 293.784 108.864 291.42C110.227 289.057 110.909 286.254 110.909 283.011C110.909 280.86 110.606 278.89 110 277.102C109.394 275.314 108.485 273.784 107.273 272.511C106.061 271.239 104.576 270.269 102.818 269.602L104 251.693C108.303 252.602 112.061 254.466 115.273 257.284C118.455 260.072 120.939 263.678 122.727 268.102C124.485 272.496 125.364 277.572 125.364 283.33ZM54.1818 223.716L78.5909 210.898L54.1818 197.761V177.898L89.0909 198.125L124 177.352V197.125L99.8636 210.898L124 224.443V244.443L89.0909 223.716L54.1818 243.716L54.1818 223.716ZM54.1818 129.261H68.7273V171.307H54.1818V129.261ZM37.4545 161.761V142.398H102.545C104.333 142.398 105.727 142.125 106.727 141.58C107.697 141.034 108.379 140.277 108.773 139.307C109.167 138.307 109.364 137.155 109.364 135.852C109.364 134.943 109.288 134.034 109.136 133.125C108.955 132.216 108.818 131.519 108.727 131.034L123.136 127.989C123.439 128.958 123.788 130.322 124.182 132.08C124.606 133.837 124.864 135.973 124.955 138.489C125.136 143.155 124.515 147.246 123.091 150.761C121.667 154.246 119.455 156.958 116.455 158.898C113.455 160.837 109.667 161.792 105.091 161.761H37.4545ZM61 54.5568C58.7879 55.1932 56.8333 56.0871 55.1364 57.2386C53.4091 58.3901 51.9545 59.7992 50.7727 61.4659C49.5606 63.1023 48.6364 64.9811 48 67.1023C47.3636 69.1932 47.0455 71.5114 47.0455 74.0568C47.0455 78.8144 48.2273 82.9962 50.5909 86.6023C52.9545 90.178 56.3939 92.9659 60.9091 94.9659C65.3939 96.9659 70.8788 97.9659 77.3636 97.9659C83.8485 97.9659 89.3636 96.9811 93.9091 95.0114C98.4545 93.0417 101.924 90.2538 104.318 86.6477C106.682 83.0417 107.864 78.7841 107.864 73.875C107.864 69.4205 107.076 65.6174 105.5 62.4659C103.894 59.2841 101.636 56.8598 98.7273 55.1932C95.8182 53.4962 92.3788 52.6477 88.4091 52.6477L89 48.6477V72.6477H74.1818L74.1818 33.6932H85.9091C94.0909 33.6932 101.121 35.4205 107 38.875C112.848 42.3295 117.364 47.0871 120.545 53.1477C123.697 59.2083 125.273 66.1477 125.273 73.9659C125.273 82.6932 123.348 90.3598 119.5 96.9659C115.621 103.572 110.121 108.723 103 112.42C95.8485 116.087 87.3636 117.92 77.5455 117.92C70 117.92 63.2727 116.83 57.3636 114.648C51.4242 112.436 46.3939 109.345 42.2727 105.375C38.1515 101.405 35.0151 96.7841 32.8636 91.5114C30.7121 86.2386 29.6364 80.5265 29.6364 74.375C29.6364 69.1023 30.4091 64.1932 31.9545 59.6477C33.4697 55.1023 35.6212 51.072 38.4091 47.5568C41.197 44.0114 44.5151 41.1174 48.3636 38.875C52.1818 36.6326 56.3939 35.1932 61 34.5568V54.5568ZM125.364 -12.5455C125.364 -5.36364 123.909 0.818181 121 6C118.061 11.1515 113.909 15.1212 108.545 17.9091C103.152 20.697 96.7727 22.0909 89.4091 22.0909C82.2273 22.0909 75.9242 20.697 70.5 17.9091C65.0758 15.1212 60.8485 11.197 57.8182 6.13636C54.7879 1.04545 53.2727 -4.92424 53.2727 -11.7727C53.2727 -16.3788 54.0152 -20.6667 55.5 -24.6364C56.9545 -28.6364 59.1515 -32.1212 62.0909 -35.0909C65.0303 -38.0909 68.7273 -40.4242 73.1818 -42.0909C77.6061 -43.7576 82.7879 -44.5909 88.7273 -44.5909H94.0455V14.3636H82.0455V-26.3636C79.2576 -26.3636 76.7879 -25.7576 74.6364 -24.5455C72.4848 -23.3333 70.803 -21.6515 69.5909 -19.5C68.3485 -17.3788 67.7273 -14.9091 67.7273 -12.0909C67.7273 -9.15152 68.4091 -6.54546 69.7727 -4.27273C71.1061 -2.0303 72.9091 -0.272728 75.1818 1C77.4242 2.27273 79.9242 2.92424 82.6818 2.95454H94.0909C97.5455 2.95454 100.53 2.31818 103.045 1.04545C105.561 -0.257577 107.5 -2.09091 108.864 -4.45455C110.227 -6.81818 110.909 -9.62121 110.909 -12.8636C110.909 -15.0152 110.606 -16.9849 110 -18.7727C109.394 -20.5606 108.485 -22.0909 107.273 -23.3636C106.061 -24.6364 104.576 -25.6061 102.818 -26.2727L104 -44.1818C108.303 -43.2727 112.061 -41.4091 115.273 -38.5909C118.455 -35.803 120.939 -32.197 122.727 -27.7727C124.485 -23.3788 125.364 -18.303 125.364 -12.5455ZM83.6364 -76.5909H124V-57.2273H54.1818V-75.6818H66.5V-76.5C62.4394 -78.0455 59.2273 -80.6364 56.8636 -84.2727C54.4697 -87.9091 53.2727 -92.3182 53.2727 -97.5C53.2727 -102.348 54.3333 -106.576 56.4545 -110.182C58.5758 -113.788 61.6061 -116.591 65.5455 -118.591C69.4545 -120.591 74.1212 -121.591 79.5455 -121.591H124V-102.227H83C78.7273 -102.258 75.3939 -101.167 73 -98.9545C70.5758 -96.7424 69.3636 -93.697 69.3636 -89.8182C69.3636 -87.2121 69.9242 -84.9091 71.0455 -82.9091C72.1667 -80.9394 73.803 -79.3939 75.9545 -78.2727C78.0758 -77.1818 80.6364 -76.6212 83.6364 -76.5909Z" fill="white"/>
<path opacity="0.15" d="M132.909 371.996V347.723L195.455 322.087V320.996L132.909 295.36V271.087H226V290.178H165.409V290.951L225.545 315.041V328.041L165.182 352.132V352.905H226V371.996H132.909ZM227.364 223.689C227.364 230.75 225.864 236.856 222.864 242.007C219.833 247.129 215.621 251.083 210.227 253.871C204.803 256.659 198.515 258.053 191.364 258.053C184.152 258.053 177.848 256.659 172.455 253.871C167.03 251.083 162.818 247.129 159.818 242.007C156.788 236.856 155.273 230.75 155.273 223.689C155.273 216.629 156.788 210.538 159.818 205.416C162.818 200.265 167.03 196.295 172.455 193.507C177.848 190.719 184.152 189.326 191.364 189.326C198.515 189.326 204.803 190.719 210.227 193.507C215.621 196.295 219.833 200.265 222.864 205.416C225.864 210.538 227.364 216.629 227.364 223.689ZM212.364 223.598C212.364 220.386 211.455 217.704 209.636 215.553C207.788 213.401 205.273 211.78 202.091 210.689C198.909 209.568 195.288 209.007 191.227 209.007C187.167 209.007 183.545 209.568 180.364 210.689C177.182 211.78 174.667 213.401 172.818 215.553C170.97 217.704 170.045 220.386 170.045 223.598C170.045 226.841 170.97 229.568 172.818 231.78C174.667 233.962 177.182 235.613 180.364 236.735C183.545 237.826 187.167 238.371 191.227 238.371C195.288 238.371 198.909 237.826 202.091 236.735C205.273 235.613 207.788 233.962 209.636 231.78C211.455 229.568 212.364 226.841 212.364 223.598ZM227.136 151.007C227.136 156.31 225.773 161.113 223.045 165.416C220.288 169.689 216.242 173.083 210.909 175.598C205.545 178.083 198.97 179.326 191.182 179.326C183.182 179.326 176.53 178.038 171.227 175.462C165.894 172.886 161.909 169.462 159.273 165.189C156.606 160.886 155.273 156.174 155.273 151.053C155.273 147.144 155.939 143.886 157.273 141.28C158.576 138.644 160.212 136.523 162.182 134.916C164.121 133.28 166.03 132.038 167.909 131.189V130.598H132.909V111.28H226V130.371H214.818V131.189C216.758 132.098 218.682 133.386 220.591 135.053C222.47 136.689 224.03 138.826 225.273 141.462C226.515 144.068 227.136 147.25 227.136 151.007ZM211.727 144.871C211.727 141.75 210.879 139.113 209.182 136.962C207.455 134.78 205.045 133.113 201.955 131.962C198.864 130.78 195.242 130.189 191.091 130.189C186.939 130.189 183.333 130.765 180.273 131.916C177.212 133.068 174.848 134.735 173.182 136.916C171.515 139.098 170.682 141.75 170.682 144.871C170.682 148.053 171.545 150.735 173.273 152.916C175 155.098 177.394 156.75 180.455 157.871C183.515 158.992 187.061 159.553 191.091 159.553C195.152 159.553 198.742 158.992 201.864 157.871C204.955 156.719 207.379 155.068 209.136 152.916C210.864 150.735 211.727 148.053 211.727 144.871ZM227.364 63.5415C227.364 70.7233 225.909 76.9051 223 82.0869C220.061 87.2384 215.909 91.2081 210.545 93.996C205.152 96.7839 198.773 98.1778 191.409 98.1778C184.227 98.1778 177.924 96.7839 172.5 93.996C167.076 91.2081 162.848 87.2839 159.818 82.2233C156.788 77.1324 155.273 71.1627 155.273 64.3142C155.273 59.7081 156.015 55.4202 157.5 51.4506C158.955 47.4506 161.152 43.9657 164.091 40.996C167.03 37.996 170.727 35.6627 175.182 33.996C179.606 32.3293 184.788 31.496 190.727 31.496H196.045V90.4506H184.045V49.7233C181.258 49.7233 178.788 50.3293 176.636 51.5415C174.485 52.7536 172.803 54.4354 171.591 56.5869C170.348 58.7081 169.727 61.1778 169.727 63.996C169.727 66.9354 170.409 69.5415 171.773 71.8142C173.106 74.0566 174.909 75.8142 177.182 77.0869C179.424 78.3596 181.924 79.0112 184.682 79.0415H196.091C199.545 79.0415 202.53 78.4051 205.045 77.1324C207.561 75.8293 209.5 73.996 210.864 71.6324C212.227 69.2687 212.909 66.4657 212.909 63.2233C212.909 61.0718 212.606 59.1021 212 57.3142C211.394 55.5263 210.485 53.996 209.273 52.7233C208.061 51.4506 206.576 50.4809 204.818 49.8142L206 31.9051C210.303 32.8142 214.061 34.6778 217.273 37.496C220.455 40.2839 222.939 43.8899 224.727 48.3142C226.485 52.7081 227.364 57.7839 227.364 63.5415ZM132.909 -0.503996H226L226 18.8596H132.909V-0.503996ZM176.091 -74.1063L177.182 -56.379C175.667 -56.076 174.303 -55.4244 173.091 -54.4244C171.848 -53.4244 170.864 -52.1063 170.136 -50.4699C169.379 -48.8638 169 -46.9396 169 -44.6972C169 -41.6972 169.636 -39.1669 170.909 -37.1063C172.152 -35.0457 173.818 -34.0154 175.909 -34.0154C177.576 -34.0154 178.985 -34.682 180.136 -36.0154C181.288 -37.3487 182.212 -39.6366 182.909 -42.879L185.455 -55.5154C186.848 -62.3032 189.091 -67.3638 192.182 -70.6972C195.273 -74.0305 199.333 -75.6972 204.364 -75.6972C208.939 -75.6972 212.955 -74.3487 216.409 -71.6517C219.864 -68.9851 222.561 -65.3184 224.5 -60.6517C226.409 -56.0154 227.364 -50.6669 227.364 -44.6063C227.364 -35.3638 225.439 -28.0002 221.591 -22.5154C217.712 -17.0608 212.439 -13.8638 205.773 -12.9244L204.773 -31.9699C207.591 -32.5457 209.742 -33.9396 211.227 -36.1517C212.682 -38.3638 213.409 -41.1972 213.409 -44.6517C213.409 -48.0457 212.758 -50.7729 211.455 -52.8335C210.121 -54.9245 208.409 -55.9851 206.318 -56.0154C204.561 -55.9851 203.121 -55.2426 202 -53.7881C200.848 -52.3335 199.97 -50.0911 199.364 -47.0608L196.955 -34.9699C195.591 -28.1517 193.227 -23.076 189.864 -19.7426C186.5 -16.4396 182.212 -14.7881 177 -14.7881C172.515 -14.7881 168.652 -16.0002 165.409 -18.4244C162.167 -20.879 159.667 -24.3184 157.909 -28.7426C156.152 -33.1972 155.273 -38.4093 155.273 -44.379C155.273 -53.1972 157.136 -60.1366 160.864 -65.1972C164.591 -70.2881 169.667 -73.2578 176.091 -74.1063Z" fill="white"/>
</svg>
