<svg width="257" height="400" viewBox="0 0 257 400" fill="none" xmlns="http://www.w3.org/2000/svg">
<path opacity="0.15" d="M226.091 2.95455L133 2.95455V-14.0455L191.591 -54.5455V-55.2273L133 -55.2273V-74.9091L226.091 -74.9091V-57.6364L167.545 -17.4545V-16.6364H226.091V2.95455ZM202.818 35.0341L178.409 47.8523L202.818 60.9886V80.8523L167.909 60.625L133 81.3977V61.625L157.136 47.8523L133 34.3068V14.3068L167.909 35.0341L202.818 15.0341V35.0341ZM202.818 129.489H188.273V87.4432H202.818V129.489ZM219.545 96.9886V116.352H154.455C152.667 116.352 151.273 116.625 150.273 117.17C149.303 117.716 148.621 118.473 148.227 119.443C147.833 120.443 147.636 121.595 147.636 122.898C147.636 123.807 147.712 124.716 147.864 125.625C148.045 126.534 148.182 127.231 148.273 127.716L133.864 130.761C133.561 129.792 133.212 128.428 132.818 126.67C132.394 124.913 132.136 122.777 132.045 120.261C131.864 115.595 132.485 111.504 133.909 107.989C135.333 104.504 137.545 101.792 140.545 99.8523C143.545 97.9129 147.333 96.9583 151.909 96.9886H219.545ZM196 204.193C198.212 203.557 200.167 202.663 201.864 201.511C203.591 200.36 205.045 198.951 206.227 197.284C207.439 195.648 208.364 193.769 209 191.648C209.636 189.557 209.955 187.239 209.955 184.693C209.955 179.936 208.773 175.754 206.409 172.148C204.045 168.572 200.606 165.784 196.091 163.784C191.606 161.784 186.121 160.784 179.636 160.784C173.152 160.784 167.636 161.769 163.091 163.739C158.545 165.708 155.076 168.496 152.682 172.102C150.318 175.708 149.136 179.966 149.136 184.875C149.136 189.33 149.924 193.133 151.5 196.284C153.106 199.466 155.364 201.89 158.273 203.557C161.182 205.254 164.621 206.102 168.591 206.102L168 210.102V186.102H182.818V225.057H171.091C162.909 225.057 155.879 223.33 150 219.875C144.152 216.42 139.636 211.663 136.455 205.602C133.303 199.542 131.727 192.602 131.727 184.784C131.727 176.057 133.652 168.39 137.5 161.784C141.379 155.178 146.879 150.027 154 146.33C161.152 142.663 169.636 140.83 179.455 140.83C187 140.83 193.727 141.92 199.636 144.102C205.576 146.314 210.606 149.405 214.727 153.375C218.848 157.345 221.985 161.966 224.136 167.239C226.288 172.511 227.364 178.223 227.364 184.375C227.364 189.648 226.591 194.557 225.045 199.102C223.53 203.648 221.379 207.678 218.591 211.193C215.803 214.739 212.485 217.633 208.636 219.875C204.818 222.117 200.606 223.557 196 224.193V204.193ZM131.636 271.295C131.636 264.114 133.091 257.932 136 252.75C138.939 247.598 143.091 243.629 148.455 240.841C153.848 238.053 160.227 236.659 167.591 236.659C174.773 236.659 181.076 238.053 186.5 240.841C191.924 243.629 196.152 247.553 199.182 252.614C202.212 257.705 203.727 263.674 203.727 270.523C203.727 275.129 202.985 279.417 201.5 283.386C200.045 287.386 197.848 290.871 194.909 293.841C191.97 296.841 188.273 299.174 183.818 300.841C179.394 302.508 174.212 303.341 168.273 303.341H162.955L162.955 244.386H174.955V285.114C177.742 285.114 180.212 284.508 182.364 283.295C184.515 282.083 186.197 280.402 187.409 278.25C188.652 276.129 189.273 273.659 189.273 270.841C189.273 267.902 188.591 265.295 187.227 263.023C185.894 260.78 184.091 259.023 181.818 257.75C179.576 256.477 177.076 255.826 174.318 255.795H162.909C159.455 255.795 156.47 256.432 153.955 257.705C151.439 259.008 149.5 260.841 148.136 263.205C146.773 265.568 146.091 268.371 146.091 271.614C146.091 273.765 146.394 275.735 147 277.523C147.606 279.311 148.515 280.841 149.727 282.114C150.939 283.386 152.424 284.356 154.182 285.023L153 302.932C148.697 302.023 144.939 300.159 141.727 297.341C138.545 294.553 136.061 290.947 134.273 286.523C132.515 282.129 131.636 277.053 131.636 271.295ZM173.364 335.341H133V315.977H202.818V334.432H190.5V335.25C194.561 336.795 197.773 339.386 200.136 343.023C202.53 346.659 203.727 351.068 203.727 356.25C203.727 361.098 202.667 365.326 200.545 368.932C198.424 372.538 195.394 375.341 191.455 377.341C187.545 379.341 182.879 380.341 177.455 380.341H133V360.977H174C178.273 361.008 181.606 359.917 184 357.705C186.424 355.492 187.636 352.447 187.636 348.568C187.636 345.962 187.076 343.659 185.955 341.659C184.833 339.689 183.197 338.144 181.045 337.023C178.924 335.932 176.364 335.371 173.364 335.341Z" fill="white"/>
<path opacity="0.15" d="M124.091 -25.2138V-0.941051L61.5455 24.6953V25.7862L124.091 51.4226V75.6953L31 75.6953V56.6044L91.5909 56.6044V55.8317L31.4545 31.7408V18.7408L91.8182 -5.35014V-6.12287L31 -6.12287V-25.2138L124.091 -25.2138ZM29.6364 123.093C29.6364 116.032 31.1364 109.926 34.1364 104.775C37.1667 99.6536 41.3788 95.6991 46.7727 92.9112C52.197 90.1233 58.4848 88.7294 65.6364 88.7294C72.8485 88.7294 79.1515 90.1233 84.5455 92.9112C89.9697 95.6991 94.1818 99.6536 97.1818 104.775C100.212 109.926 101.727 116.032 101.727 123.093C101.727 130.154 100.212 136.245 97.1818 141.366C94.1818 146.517 89.9697 150.487 84.5455 153.275C79.1515 156.063 72.8485 157.457 65.6364 157.457C58.4848 157.457 52.197 156.063 46.7727 153.275C41.3788 150.487 37.1667 146.517 34.1364 141.366C31.1364 136.245 29.6364 130.154 29.6364 123.093ZM44.6364 123.184C44.6364 126.396 45.5455 129.078 47.3636 131.229C49.2121 133.381 51.7273 135.002 54.9091 136.093C58.0909 137.214 61.7121 137.775 65.7727 137.775C69.8333 137.775 73.4545 137.214 76.6364 136.093C79.8182 135.002 82.3333 133.381 84.1818 131.229C86.0303 129.078 86.9545 126.396 86.9545 123.184C86.9545 119.942 86.0303 117.214 84.1818 115.002C82.3333 112.82 79.8182 111.169 76.6364 110.048C73.4545 108.957 69.8333 108.411 65.7727 108.411C61.7121 108.411 58.0909 108.957 54.9091 110.048C51.7273 111.169 49.2121 112.82 47.3636 115.002C45.5455 117.214 44.6364 119.942 44.6364 123.184ZM29.8636 195.775C29.8636 190.472 31.2273 185.669 33.9545 181.366C36.7121 177.093 40.7576 173.699 46.0909 171.184C51.4545 168.699 58.0303 167.457 65.8182 167.457C73.8182 167.457 80.4697 168.745 85.7727 171.32C91.1061 173.896 95.0909 177.32 97.7273 181.593C100.394 185.896 101.727 190.608 101.727 195.729C101.727 199.638 101.061 202.896 99.7273 205.502C98.4242 208.138 96.7879 210.26 94.8182 211.866C92.8788 213.502 90.9697 214.745 89.0909 215.593V216.184H124.091V235.502H31V216.411H42.1818V215.593C40.2424 214.684 38.3182 213.396 36.4091 211.729C34.5303 210.093 32.9697 207.957 31.7273 205.32C30.4848 202.714 29.8636 199.532 29.8636 195.775ZM45.2727 201.911C45.2727 205.032 46.1212 207.669 47.8182 209.82C49.5455 212.002 51.9545 213.669 55.0455 214.82C58.1364 216.002 61.7576 216.593 65.9091 216.593C70.0606 216.593 73.6667 216.017 76.7273 214.866C79.7879 213.714 82.1515 212.048 83.8182 209.866C85.4849 207.684 86.3182 205.032 86.3182 201.911C86.3182 198.729 85.4545 196.048 83.7273 193.866C82 191.684 79.6061 190.032 76.5455 188.911C73.4849 187.79 69.9394 187.229 65.9091 187.229C61.8485 187.229 58.2576 187.79 55.1364 188.911C52.0455 190.063 49.6212 191.714 47.8636 193.866C46.1364 196.048 45.2727 198.729 45.2727 201.911ZM29.6364 283.241C29.6364 276.059 31.0909 269.877 34 264.695C36.9394 259.544 41.0909 255.574 46.4545 252.786C51.8485 249.998 58.2273 248.604 65.5909 248.604C72.7727 248.604 79.0758 249.998 84.5 252.786C89.9242 255.574 94.1515 259.498 97.1818 264.559C100.212 269.65 101.727 275.62 101.727 282.468C101.727 287.074 100.985 291.362 99.5 295.332C98.0455 299.332 95.8485 302.817 92.9091 305.786C89.9697 308.786 86.2727 311.12 81.8182 312.786C77.3939 314.453 72.2121 315.286 66.2727 315.286H60.9545V256.332H72.9545V297.059C75.7424 297.059 78.2121 296.453 80.3636 295.241C82.5152 294.029 84.197 292.347 85.4091 290.195C86.6515 288.074 87.2727 285.604 87.2727 282.786C87.2727 279.847 86.5909 277.241 85.2273 274.968C83.8939 272.726 82.0909 270.968 79.8182 269.695C77.5758 268.423 75.0758 267.771 72.3182 267.741H60.9091C57.4545 267.741 54.4697 268.377 51.9545 269.65C49.4394 270.953 47.5 272.786 46.1364 275.15C44.7727 277.513 44.0909 280.317 44.0909 283.559C44.0909 285.71 44.3939 287.68 45 289.468C45.6061 291.256 46.5152 292.786 47.7273 294.059C48.9394 295.332 50.4242 296.301 52.1818 296.968L51 314.877C46.697 313.968 42.9394 312.104 39.7273 309.286C36.5455 306.498 34.0606 302.892 32.2727 298.468C30.5152 294.074 29.6364 288.998 29.6364 283.241ZM124.091 347.286H31L31 327.923H124.091V347.286ZM80.9091 420.888L79.8182 403.161C81.3333 402.858 82.697 402.207 83.9091 401.207C85.1515 400.207 86.1364 398.888 86.8636 397.252C87.6212 395.646 88 393.722 88 391.479C88 388.479 87.3636 385.949 86.0909 383.888C84.8485 381.828 83.1818 380.798 81.0909 380.798C79.4242 380.798 78.0152 381.464 76.8636 382.798C75.7121 384.131 74.7879 386.419 74.0909 389.661L71.5455 402.298C70.1515 409.085 67.9091 414.146 64.8182 417.479C61.7273 420.813 57.6667 422.479 52.6364 422.479C48.0606 422.479 44.0455 421.131 40.5909 418.434C37.1364 415.767 34.4394 412.101 32.5 407.434C30.5909 402.798 29.6364 397.449 29.6364 391.388C29.6364 382.146 31.5606 374.782 35.4091 369.298C39.2879 363.843 44.5606 360.646 51.2273 359.707L52.2273 378.752C49.4091 379.328 47.2576 380.722 45.7727 382.934C44.3182 385.146 43.5909 387.979 43.5909 391.434C43.5909 394.828 44.2424 397.555 45.5455 399.616C46.8788 401.707 48.5909 402.767 50.6818 402.798C52.4394 402.767 53.8788 402.025 55 400.57C56.1515 399.116 57.0303 396.873 57.6364 393.843L60.0455 381.752C61.4091 374.934 63.7727 369.858 67.1364 366.525C70.5 363.222 74.7879 361.57 80 361.57C84.4849 361.57 88.3485 362.782 91.5909 365.207C94.8333 367.661 97.3333 371.101 99.0909 375.525C100.848 379.979 101.727 385.192 101.727 391.161C101.727 399.979 99.8636 406.919 96.1364 411.979C92.4091 417.07 87.3333 420.04 80.9091 420.888Z" fill="white"/>
</svg>
