<svg width="190" height="10" viewBox="0 0 190 10" fill="none" xmlns="http://www.w3.org/2000/svg">
<g clip-path="url(#clip0_1_55)">
<path d="M72.2142 -0.0714439C73.1543 -0.0971582 74.0944 -0.131444 75.0345 -0.157158C75.3632 -0.167158 75.6918 -0.17573 76.0205 -0.178587C81.2036 -0.22573 86.385 -0.264301 91.5681 -0.307158C92.555 -0.31573 93.5419 -0.342872 94.5288 -0.33573C96.7377 -0.324301 98.9484 -0.278587 101.157 -0.252872C104.131 -0.218587 107.104 -0.18573 110.078 -0.15573C111.147 -0.144301 112.217 -0.134301 113.286 -0.127158C113.709 -0.122872 114.132 -0.13573 114.555 -0.121444C119.046 0.0342704 123.537 0.211413 128.027 0.379985C130.108 0.459985 132.189 0.529985 134.269 0.625699C135.422 0.681413 136.575 0.765699 137.727 0.835699C142.394 1.12141 147.062 1.39713 151.73 1.69856C152.306 1.7357 152.882 1.79856 153.459 1.84998C154.611 1.94998 155.764 2.05427 156.916 2.14998C157.045 2.16284 157.174 2.16998 157.304 2.17427C159.548 2.26713 161.794 2.35141 164.039 2.44141C165.745 2.50998 167.448 2.58141 169.154 2.64856L169.753 2.6657C171.002 2.7057 173.086 2.75998 174.372 2.82141C175.03 2.85284 175.691 2.8457 176.348 2.9357C176.612 2.97284 176.892 2.99998 177.125 3.19998C177.282 3.33284 177.271 3.83713 177.448 3.87427C178.86 4.16856 180.292 4.13141 181.716 4.15998C181.818 4.16284 181.896 3.99427 181.996 3.96856C182.346 3.87999 182.7 3.78998 183.054 3.82284C183.262 3.84141 183.452 4.03998 183.655 4.12141C183.748 4.157 183.843 4.17569 183.938 4.17713C185.304 4.21427 186.159 4.15856 187.428 4.22998C187.691 4.24427 188.37 4.30141 188.699 4.38998C188.865 4.4357 189.043 4.44713 189.194 4.5657C189.441 4.76427 189.704 4.97713 189.869 5.32713C189.956 5.50999 189.99 5.87141 189.876 6.00856C188.572 7.56856 187.578 6.9657 185.968 6.89427C182.652 6.73527 179.337 6.55431 176.022 6.35141C175.022 6.28998 174.023 6.24284 173.023 6.16284C170.695 5.97856 168.368 5.75998 166.039 5.56141C161.817 5.20141 157.598 4.76998 153.374 4.48427C152.293 4.41284 151.212 4.48427 150.13 4.48856C146.076 4.49713 142.022 4.4957 137.968 4.51713C135.782 4.52856 133.596 4.56713 131.41 4.58856C129.765 4.60284 128.12 4.61713 126.475 4.6257C117.85 4.67856 109.224 4.73141 100.599 4.77713C98.8007 4.78713 97.0024 4.76284 95.2051 4.79284C94.6648 4.80284 94.1245 4.86141 93.5842 4.88856C90.917 5.01998 88.2498 5.12713 85.5835 5.2657C84.0914 5.34427 82.6003 5.45141 81.1082 5.54284C78.6184 5.69713 76.1286 5.84284 73.6369 6.00284C69.266 6.28856 65.6425 6.58713 61.1654 6.90713C58.5531 7.09284 54.4659 7.36141 51.7563 7.52998C51.2043 7.5657 50.6532 7.5957 50.0995 7.6257C47.7042 7.75713 45.308 7.88427 42.9119 8.01856C42.16 8.06141 41.4081 8.1057 40.6562 8.15713C37.6371 8.37209 34.6189 8.61876 31.6019 8.89713C30.4142 9.0057 29.2292 9.12856 28.0432 9.24998C27.3391 9.32141 26.6295 9.32713 25.9298 9.47856C25.7768 9.51141 25.6633 9.75999 25.5093 9.79713C25.4193 9.81713 24.1496 9.7157 24.0271 9.63999C23.9155 9.57141 23.7876 9.36713 23.8119 9.17856C23.838 8.99284 24.0082 8.93284 24.1271 8.89427C24.5323 8.7657 24.9483 8.74856 25.3598 8.68427C26.0262 8.57713 27.5273 8.37856 28.036 8.31998C29.9847 8.0957 31.9333 7.86998 33.8837 7.6757C35.3569 7.52856 40.3806 7.06856 42.8677 6.90427C46.9721 6.6357 47.2828 6.67284 51.7122 6.3557C55.8463 6.05713 59.9804 5.73427 64.1135 5.42141C65.7704 5.29713 67.475 5.68284 69.0814 5.04284C70.4502 4.49713 66.263 5.09998 64.8528 5.12856C60.0695 5.22427 55.288 5.30998 50.5056 5.41856C46.3346 5.51284 42.1636 5.61141 37.9926 5.73284C36.3942 5.77856 34.7959 5.85856 33.1994 5.92141C31.2615 6.00141 29.3219 6.07141 27.3841 6.16427C23.1789 6.36427 18.9737 6.58427 14.7685 6.78998C12.5353 6.90141 10.3039 7.00856 8.07164 7.11141C7.12074 7.15713 6.16894 7.19284 5.21714 7.23141C4.72368 7.25141 4.23022 7.26856 3.73766 7.29284C3.47832 7.30713 3.21989 7.32141 2.96145 7.33856C2.63368 7.35998 2.3032 7.4157 1.97453 7.35856C1.77326 7.32675 1.5731 7.27907 1.37481 7.2157C1.30008 7.19284 1.21273 7.18427 1.1623 7.09713C0.908369 6.66141 0.405905 6.26713 0.480644 5.6857C0.557184 5.10141 1.09837 4.95999 1.46036 4.79713C2.08709 4.51998 2.74984 4.50284 3.39638 4.38713C4.66965 4.15856 6.15093 4.02713 7.41159 3.90284C10.2409 3.624 13.0711 3.37066 15.9022 3.14284C23.3221 2.54284 31.6352 1.87998 39.0858 1.40427C46.7254 0.91427 52.4308 0.628556 59.8426 0.271413C60.3595 0.247128 60.8763 0.225699 61.3932 0.209985C62.1091 0.188556 62.8268 0.18427 63.5426 0.167128C66.4332 0.0914133 69.3237 0.0114132 72.2142 -0.0714439ZM56.7981 3.05998C59.477 3.03713 62.1199 2.98284 64.7988 2.92856C69.1355 2.84141 73.5064 2.78427 77.8431 2.72856C81.7196 2.67998 85.5628 2.66427 89.4051 2.64856L100.829 2.60284L112.32 2.55713C110.03 2.54284 107.702 2.4957 105.41 2.48141L96.8422 2.37427C95.749 2.3657 94.6909 2.32427 93.5987 2.3457L78.5454 2.4657C77.382 2.48856 76.1835 2.48284 74.9841 2.50856C72.5168 2.55713 70.0504 2.63713 67.5831 2.68713C65.503 2.72998 63.4589 2.80141 61.3797 2.84427C60.8502 2.88713 60.2856 2.89713 59.7228 2.93856C58.771 2.95856 57.8192 3.00856 56.7981 3.05998Z" fill="#DC710E"/>
</g>
<defs>
<clipPath id="clip0_1_55">
<rect width="190" height="10" fill="white"/>
</clipPath>
</defs>
</svg>
